<!DOCTYPE svg PUBLIC "-//W3C//DTD SVG 1.1//EN" "http://www.w3.org/Graphics/SVG/1.1/DTD/svg11.dtd">
<!-- Uploaded to: SVG Repo, www.svgrepo.com, Transformed by: SVG Repo Mixer Tools -->
<svg width="800px" height="800px" viewBox="-0.68 -0.68 35.36 35.36" xmlns="http://www.w3.org/2000/svg" fill="#000000">
<g id="SVGRepo_bgCarrier" stroke-width="0"/>
<g id="SVGRepo_tracerCarrier" stroke-linecap="round" stroke-linejoin="round"/>
<g id="SVGRepo_iconCarrier"> <g fill="none" fill-rule="evenodd"> <g> <path d="M1 1.993c0-.55.45-.993.995-.993h17.01c.55 0 1.34.275 1.776.625l3.44 2.75c.43.345.78 1.065.78 1.622v26.006c0 .55-.447.997-1 .997H2c-.552 0-1-.452-1-.993V1.993z" stroke="#000000" stroke-width="2"/> <path fill="#000000" d="M18 2h1v6h-1z"/> <path fill="#000000" d="M18 7h6v1h-6z"/> <g transform="translate(1 1) translate(5 10)" fill="#000000"> <ellipse id="Oval-54" transform="rotate(-30 3 11)" cx="3" cy="11" rx="2" ry="1.5"/> <ellipse transform="rotate(-30 10 10)" cx="10" cy="10" rx="2" ry="1.5"/> <path d="M4 2h1v9H4zM11 1h1v9h-1zM4 2l8-2v1L4 3V2z"/> </g> </g> </g> </g>
</svg>