<?xml version="1.0" encoding="iso-8859-1"?>
<!-- Uploaded to: SVG Repo, www.svgrepo.com, Generator: SVG Repo Mixer Tools -->
<!DOCTYPE svg PUBLIC "-//W3C//DTD SVG 1.1//EN" "http://www.w3.org/Graphics/SVG/1.1/DTD/svg11.dtd">
<svg height="800px" width="800px" version="1.1" id="Capa_1" xmlns="http://www.w3.org/2000/svg" xmlns:xlink="http://www.w3.org/1999/xlink" 
	 viewBox="0 0 370.32 370.32" xml:space="preserve">
<g>
	<path style="fill:#020202;" d="M320.816,63.219L261.94,4.339C259.156,1.561,255.391,0,251.457,0H74.272
		C58.219,0,45.16,13.06,45.16,29.112v312.095c0,16.053,13.059,29.113,29.111,29.113h221.777c16.053,0,29.111-13.06,29.111-29.113
		V73.703C325.16,69.769,323.6,65.998,320.816,63.219z M293.547,337.907H76.773V32.414h154.088v43.577
		c0,10.554,8.555,19.106,19.105,19.106h43.58V337.907z"/>
	<path style="fill:#020202;" d="M188.56,118.81l-0.106-0.01c-1.746-0.197-3.426-0.297-4.992-0.297
		c-12.059,0-16.338,6.036-16.338,11.205v89.964c-3.295-0.993-6.748-1.497-10.262-1.497c-1.529,0-3.074,0.098-4.592,0.289
		c-8.756,1.105-16.6,5.215-22.086,11.574c-5.486,6.359-7.961,14.206-6.965,22.094c1.848,14.644,15.554,25.687,31.881,25.687
		c1.533,0,3.089-0.098,4.623-0.291c16.924-2.136,29.207-15.559,29.207-31.917v-88.274c1.271-0.085,2.545-0.128,3.785-0.128
		c14.921,0,28.641,6.243,39.674,18.052c2.344,2.508,4.562,5.262,6.592,8.184c1.04,1.497,2.901,2.189,4.668,1.735
		c1.766-0.454,3.063-1.958,3.252-3.771c1.09-10.455,0.574-25.611-8.076-38.445C229.389,128.963,212.477,120.837,188.56,118.81z"/>
</g>
</svg>